<svg width="1029" height="237" viewBox="0 0 1029 237" fill="none" xmlns="http://www.w3.org/2000/svg">
<path d="M364.533 0.866573C358.267 2.86657 355.333 4.99991 353.067 9.39991C350.8 13.2666 350.667 20.3332 350.267 94.0666C349.733 178.6 350.533 195.133 355.333 210.733C360.533 227.533 369.2 233 394 235.667C428.4 239.133 432.667 236.333 432.667 210.6C432.667 192.6 429.067 187.133 416.133 185.933C411.6 185.533 407.333 184.2 406.133 183C404.267 181.133 403.867 171.4 403.333 97.2666C402.533 4.73324 402.933 7.53324 393.867 2.99991C389.2 0.599906 369.733 -0.86676 364.533 0.866573Z" fill="url(#paint0_linear_644_3227)"/>
<path d="M985.333 13.4C981.067 14.7333 979.467 16.2 977.067 21C974 26.8667 974 27.4 974 83.9333C974 146.2 974.133 147.8 981.467 152.6C984.533 154.6 988 155 1000.8 155C1014.67 155 1016.93 154.733 1020.27 152.2C1027.33 146.867 1027.33 147.4 1027.33 84.6C1027.33 21.1333 1027.2 19.5333 1019.87 14.8667C1015.33 11.8 993.333 10.8667 985.333 13.4Z" fill="url(#paint1_linear_644_3227)"/>
<path d="M14 14.1999C12.1333 14.8666 9.19996 16.0666 7.59996 17.1332C1.06662 21.2666 1.06662 21.5332 0.53329 125.667C-4.36287e-05 215.533 0.13329 223.267 2.26662 227.133C5.46662 233.133 13.4666 235.933 26.6666 236.067C40.6666 236.2 46.4 234.2 50.2666 227.933C53.2 223.133 53.3333 221.8 53.7333 187.267L54.2666 151.667H90.5333C123.067 151.667 127.2 151.4 131.333 149.267C138 145.667 140.8 137.267 140.267 122.333C139.6 108.733 137.733 104.333 131.067 100.867C126.533 98.5999 122.933 98.3332 90 98.3332H54V82.3332V66.3332H106.267C156.133 66.3332 158.8 66.1999 164.133 63.6666C171.6 59.9332 174 54.0666 174 39.2666C174 31.2666 173.2 26.7332 171.333 22.5999C166.933 12.7332 168.933 12.9999 88.4 13.1332C49.3333 13.1332 15.8666 13.6666 14 14.1999Z" fill="url(#paint2_linear_644_3227)"/>
<path d="M599.467 14.8667C594.267 17.6667 592.8 22.0667 592.667 33.9333C592.667 55.5333 592.933 55.6667 637.867 55.6667H672.667L672.933 140.2C673.333 223.667 673.333 224.867 676.133 228.6C680.533 234.6 685.333 236.2 698.667 236.067C713.467 236.067 719.333 233.933 722.4 227.267C724.4 223 724.667 214.333 724.667 139.133V55.6667H759.733C792 55.6667 794.933 55.4 798.933 53C804.267 49.8 806.533 42.2 805.6 30.7333C804.933 21.4 802.267 16.2 797.2 14.3333C795.2 13.5333 755.867 13 698.267 13C621.467 13.1333 602 13.4 599.467 14.8667Z" fill="url(#paint3_linear_644_3227)"/>
<path d="M223.467 77.8C209.867 80.7333 201.2 85.8 188.533 98.3333C169.733 117.133 162.4 135 163.733 159.667C164.533 175.133 168.133 187 175.333 198.067C182.667 209.667 190.267 217.4 200.533 224.2C213.2 232.6 221.333 235 237.333 235C249.2 235 251.467 234.6 258.267 231.267C262.4 229.267 267.333 225.8 269.067 223.667L272.4 219.8L274.4 225C277.467 233 281.6 234.867 297.2 235.4C313.067 235.933 318.533 233.933 322.267 226.333C324.4 222.067 324.667 215.933 324.667 156.733C324.667 84.4667 324.533 83.1333 316.133 78.6C310.267 75.4 287.2 75.4 281.2 78.6C277.333 80.7333 272.667 87.8 272.667 91.5333C272.667 92.4667 270.667 91.1333 268.133 88.6C262.4 82.7333 253.6 78.7333 243.067 77C233.067 75.4 234.267 75.4 223.467 77.8ZM258.933 133.8C276.667 148.2 271.867 176.2 250.533 181.667C234.133 185.8 218.267 175.133 216.933 159C216.133 149.533 218.533 143 225.333 136.2C231.733 129.8 233.867 129.133 245.6 129.533C252.667 129.8 254.667 130.467 258.933 133.8Z" fill="url(#paint4_linear_644_3227)"/>
<path d="M508.667 77.1334C491.333 79.9334 471.733 94.0667 459.467 112.467C430 156.467 452.933 218.867 503.867 233.667C520 238.333 541.733 234.333 550.8 224.867C552.8 222.733 554.8 221 555.333 221C555.733 221 556.933 223.133 557.867 225.8C560.4 232.733 567.467 235.533 581.6 235.667C595.733 235.667 602.267 233.267 605.6 226.6C607.867 222.067 608 216.867 608 155.667C608 91.5334 607.867 89.5334 605.2 85.0001C603.733 82.4667 600.8 79.5334 598.667 78.4667C593.333 75.9334 579.733 75.1334 571.333 76.8667C563.067 78.6001 558.667 82.0667 556.533 88.6001L555.067 93.1334L552.4 89.6667C544.933 80.2001 525.067 74.4667 508.667 77.1334ZM536.267 130.467C545.6 133.933 553.2 145.667 553.067 156.467C553.067 164.067 551.467 167.8 545.467 174.067C539.6 180.333 535.2 182.333 527.067 182.333C504.533 182.2 492.4 160.6 504.133 141.267C510.533 130.867 524.8 126.067 536.267 130.467Z" fill="url(#paint5_linear_644_3227)"/>
<path d="M796.933 78.2001C787.333 82.7334 787.067 84.0668 787.6 132.867L788 175L791.733 185.667C802.267 215.533 824.933 233.8 853.333 235.267C868.667 236.067 877.333 233.133 888 223.4C895.2 216.867 895.333 216.867 895.333 220.2C895.333 225.8 899.067 231.667 904 233.8C910.8 236.6 932 236.333 938 233.267C947.6 228.6 947.467 229.667 947.067 155C946.667 95.1334 946.4 87.9334 944.4 84.2001C941.067 78.2001 935.467 76.3334 920 76.3334C908.133 76.3334 906.133 76.7334 902.267 79.5334C899.867 81.2668 897.2 84.2001 896.267 86.2001C895.333 88.3334 894.533 104.2 894.133 127.667C893.333 167.8 892.933 170.2 886.533 175.8C877.733 183.533 862.133 185 852 179.133C841.6 173 840.933 170.2 840.4 127C839.867 85.6668 839.467 83.8001 831.333 79.1334C824.533 75.1334 804.8 74.6001 796.933 78.2001Z" fill="url(#paint6_linear_644_3227)"/>
<path d="M985.6 182.333C976.8 185 972.667 193 972.8 207.667C972.8 221.933 975.867 230.067 982.4 233.4C992.933 238.733 1017.2 237.533 1023.07 231.267C1027.47 226.6 1028.8 221.4 1028.8 208.333C1028.93 186.067 1023.73 181 1001.33 181.133C994.8 181.133 987.6 181.8 985.6 182.333Z" fill="url(#paint7_linear_644_3227)"/>
<defs>
<linearGradient id="paint0_linear_644_3227" x1="389.908" y1="255" x2="389.907" y2="4" gradientUnits="userSpaceOnUse">
<stop stop-color="#594ECE"/>
<stop offset="1" stop-color="#6C71B7"/>
</linearGradient>
<linearGradient id="paint1_linear_644_3227" x1="999.706" y1="165.956" x2="999.705" y2="14.2895" gradientUnits="userSpaceOnUse">
<stop stop-color="#594ECE"/>
<stop offset="1" stop-color="#6C71B7"/>
</linearGradient>
<linearGradient id="paint2_linear_644_3227" x1="84.0037" y1="253.149" x2="84.0036" y2="16.7612" gradientUnits="userSpaceOnUse">
<stop stop-color="#594ECE"/>
<stop offset="1" stop-color="#6C71B7"/>
</linearGradient>
<linearGradient id="paint3_linear_644_3227" x1="695.394" y1="253.158" x2="695.394" y2="16.6658" gradientUnits="userSpaceOnUse">
<stop stop-color="#594ECE"/>
<stop offset="1" stop-color="#6C71B7"/>
</linearGradient>
<linearGradient id="paint4_linear_644_3227" x1="241.221" y1="247.704" x2="241.221" y2="78.5076" gradientUnits="userSpaceOnUse">
<stop stop-color="#594ECE"/>
<stop offset="1" stop-color="#6C71B7"/>
</linearGradient>
<linearGradient id="paint5_linear_644_3227" x1="524.306" y1="247.899" x2="524.306" y2="78.5671" gradientUnits="userSpaceOnUse">
<stop stop-color="#594ECE"/>
<stop offset="1" stop-color="#6C71B7"/>
</linearGradient>
<linearGradient id="paint6_linear_644_3227" x1="864.441" y1="247.994" x2="864.441" y2="78.4189" gradientUnits="userSpaceOnUse">
<stop stop-color="#594ECE"/>
<stop offset="1" stop-color="#6C71B7"/>
</linearGradient>
<linearGradient id="paint7_linear_644_3227" x1="999.79" y1="241.034" x2="999.79" y2="182.045" gradientUnits="userSpaceOnUse">
<stop stop-color="#594ECE"/>
<stop offset="1" stop-color="#6C71B7"/>
</linearGradient>
</defs>
</svg>
